<mxfile host="app.diagrams.net" agent="Mozilla/5.0 (Windows NT 10.0; Win64; x64) AppleWebKit/537.36 (KHTML, like Gecko) Chrome/129.0.0.0 Safari/537.36" version="24.7.16">
  <diagram name="Page-1" id="Vs56to6qii8_5qUl6IEp">
    <mxGraphModel dx="1238" dy="767" grid="1" gridSize="10" guides="1" tooltips="1" connect="1" arrows="1" fold="1" page="1" pageScale="1" pageWidth="850" pageHeight="1100" math="0" shadow="0">
      <root>
        <mxCell id="0" />
        <mxCell id="1" parent="0" />
        <mxCell id="ftgR-l1annhKaB52CXfZ-1" value="start" style="ellipse;whiteSpace=wrap;html=1;" vertex="1" parent="1">
          <mxGeometry x="220" y="20" width="120" height="80" as="geometry" />
        </mxCell>
        <mxCell id="ftgR-l1annhKaB52CXfZ-2" value="pen is facing right" style="shape=parallelogram;perimeter=parallelogramPerimeter;whiteSpace=wrap;html=1;fixedSize=1;" vertex="1" parent="1">
          <mxGeometry x="200" y="180" width="160" height="80" as="geometry" />
        </mxCell>
        <mxCell id="ftgR-l1annhKaB52CXfZ-3" value="" style="edgeStyle=orthogonalEdgeStyle;rounded=0;orthogonalLoop=1;jettySize=auto;html=1;" edge="1" parent="1" source="ftgR-l1annhKaB52CXfZ-1" target="ftgR-l1annhKaB52CXfZ-2">
          <mxGeometry relative="1" as="geometry" />
        </mxCell>
        <mxCell id="ftgR-l1annhKaB52CXfZ-4" value="is pen lowered to paper" style="rhombus;whiteSpace=wrap;html=1;" vertex="1" parent="1">
          <mxGeometry x="225" y="340" width="110" height="110" as="geometry" />
        </mxCell>
        <mxCell id="ftgR-l1annhKaB52CXfZ-5" value="" style="edgeStyle=orthogonalEdgeStyle;rounded=0;orthogonalLoop=1;jettySize=auto;html=1;" edge="1" parent="1" source="ftgR-l1annhKaB52CXfZ-2" target="ftgR-l1annhKaB52CXfZ-4">
          <mxGeometry relative="1" as="geometry" />
        </mxCell>
        <mxCell id="ftgR-l1annhKaB52CXfZ-6" value="draw 1 inch line" style="shape=parallelogram;perimeter=parallelogramPerimeter;whiteSpace=wrap;html=1;fixedSize=1;" vertex="1" parent="1">
          <mxGeometry x="10" y="470" width="165" height="80" as="geometry" />
        </mxCell>
        <mxCell id="ftgR-l1annhKaB52CXfZ-7" value="" style="edgeStyle=orthogonalEdgeStyle;rounded=0;orthogonalLoop=1;jettySize=auto;html=1;" edge="1" parent="1" source="ftgR-l1annhKaB52CXfZ-4" target="ftgR-l1annhKaB52CXfZ-6">
          <mxGeometry relative="1" as="geometry" />
        </mxCell>
        <mxCell id="ftgR-l1annhKaB52CXfZ-8" value="yes" style="text;html=1;align=center;verticalAlign=middle;resizable=0;points=[];autosize=1;strokeColor=none;fillColor=none;" vertex="1" parent="1">
          <mxGeometry x="120" y="368" width="40" height="30" as="geometry" />
        </mxCell>
        <mxCell id="ftgR-l1annhKaB52CXfZ-9" value="reposition 1 inch to the right" style="shape=parallelogram;perimeter=parallelogramPerimeter;whiteSpace=wrap;html=1;fixedSize=1;" vertex="1" parent="1">
          <mxGeometry x="390" y="460" width="165" height="80" as="geometry" />
        </mxCell>
        <mxCell id="ftgR-l1annhKaB52CXfZ-10" value="" style="edgeStyle=orthogonalEdgeStyle;rounded=0;orthogonalLoop=1;jettySize=auto;html=1;" edge="1" parent="1" source="ftgR-l1annhKaB52CXfZ-4" target="ftgR-l1annhKaB52CXfZ-9">
          <mxGeometry relative="1" as="geometry" />
        </mxCell>
        <mxCell id="ftgR-l1annhKaB52CXfZ-11" value="no" style="text;html=1;align=center;verticalAlign=middle;resizable=0;points=[];autosize=1;strokeColor=none;fillColor=none;" vertex="1" parent="1">
          <mxGeometry x="370" y="368" width="40" height="30" as="geometry" />
        </mxCell>
        <mxCell id="ftgR-l1annhKaB52CXfZ-12" value="is circle drawn?" style="rhombus;whiteSpace=wrap;html=1;" vertex="1" parent="1">
          <mxGeometry x="205" y="640" width="150" height="150" as="geometry" />
        </mxCell>
        <mxCell id="ftgR-l1annhKaB52CXfZ-13" value="" style="edgeStyle=orthogonalEdgeStyle;rounded=0;orthogonalLoop=1;jettySize=auto;html=1;" edge="1" parent="1">
          <mxGeometry relative="1" as="geometry">
            <mxPoint x="90" y="550" as="sourcePoint" />
            <mxPoint x="280" y="640" as="targetPoint" />
            <Array as="points">
              <mxPoint x="90" y="620" />
              <mxPoint x="280" y="620" />
            </Array>
          </mxGeometry>
        </mxCell>
        <mxCell id="ftgR-l1annhKaB52CXfZ-16" value="" style="edgeStyle=orthogonalEdgeStyle;rounded=0;orthogonalLoop=1;jettySize=auto;html=1;exitX=0.5;exitY=1;exitDx=0;exitDy=0;" edge="1" parent="1" source="ftgR-l1annhKaB52CXfZ-9">
          <mxGeometry relative="1" as="geometry">
            <mxPoint x="480" y="549.93" as="sourcePoint" />
            <mxPoint x="280" y="639.93" as="targetPoint" />
            <Array as="points">
              <mxPoint x="472" y="620" />
              <mxPoint x="280" y="620" />
            </Array>
          </mxGeometry>
        </mxCell>
        <mxCell id="ftgR-l1annhKaB52CXfZ-17" value="end" style="ellipse;whiteSpace=wrap;html=1;" vertex="1" parent="1">
          <mxGeometry x="208.75" y="870" width="142.5" height="90" as="geometry" />
        </mxCell>
        <mxCell id="ftgR-l1annhKaB52CXfZ-18" value="" style="edgeStyle=orthogonalEdgeStyle;rounded=0;orthogonalLoop=1;jettySize=auto;html=1;" edge="1" parent="1" source="ftgR-l1annhKaB52CXfZ-12" target="ftgR-l1annhKaB52CXfZ-17">
          <mxGeometry relative="1" as="geometry" />
        </mxCell>
        <mxCell id="ftgR-l1annhKaB52CXfZ-19" value="yes" style="text;html=1;align=center;verticalAlign=middle;resizable=0;points=[];autosize=1;strokeColor=none;fillColor=none;" vertex="1" parent="1">
          <mxGeometry x="280" y="808" width="40" height="30" as="geometry" />
        </mxCell>
        <mxCell id="ftgR-l1annhKaB52CXfZ-21" value="" style="endArrow=none;html=1;rounded=0;" edge="1" parent="1" source="ftgR-l1annhKaB52CXfZ-12">
          <mxGeometry width="50" height="50" relative="1" as="geometry">
            <mxPoint x="355" y="765" as="sourcePoint" />
            <mxPoint x="640" y="715" as="targetPoint" />
          </mxGeometry>
        </mxCell>
        <mxCell id="ftgR-l1annhKaB52CXfZ-22" value="" style="endArrow=none;html=1;rounded=0;" edge="1" parent="1">
          <mxGeometry width="50" height="50" relative="1" as="geometry">
            <mxPoint x="640" y="710" as="sourcePoint" />
            <mxPoint x="640" y="300" as="targetPoint" />
          </mxGeometry>
        </mxCell>
        <mxCell id="ftgR-l1annhKaB52CXfZ-24" value="" style="endArrow=classic;html=1;rounded=0;" edge="1" parent="1">
          <mxGeometry width="50" height="50" relative="1" as="geometry">
            <mxPoint x="640" y="300" as="sourcePoint" />
            <mxPoint x="280" y="300" as="targetPoint" />
          </mxGeometry>
        </mxCell>
        <mxCell id="ftgR-l1annhKaB52CXfZ-25" value="no" style="text;html=1;align=center;verticalAlign=middle;resizable=0;points=[];autosize=1;strokeColor=none;fillColor=none;" vertex="1" parent="1">
          <mxGeometry x="370" y="688" width="40" height="30" as="geometry" />
        </mxCell>
      </root>
    </mxGraphModel>
  </diagram>
</mxfile>
